# xmcd
#
# Track frame offsets:
#	150
#	3614
#	17611
#	27277
#	37944
#	50160
#	59263
#	69715
#	72435
#	85538
#
# Disc length: 1309 seconds
#
# Revision: 1
# Processed by: cddbd v1.5.2PL0 Copyright (c) Steve Scherf et al.
# Submitted via: audiograbber 1.83.01
#
DISCID=7f051b0a
DTITLE=Barbara Mandrell And Friends - Good Old Country
DYEAR=2000
DGENRE=Country
TTITLE0=Back In The Saddle
TTITLE1=Try To Remember
TTITLE2=Please Release Me
TTITLE3=The Wayward Wind
TTITLE4=Mama Don't Allow No Country Music Here
TTITLE5=Wait For The Light To Shine
TTITLE6=Anytime
TTITLE7=Hold Me
TTITLE8=Don't Touch Me
TTITLE9=Just a Pickin'
EXTD=2000 St. Clair Entertainment Group, Inc.
EXTT0=
EXTT1=
EXTT2=
EXTT3=
EXTT4=
EXTT5=
EXTT6=
EXTT7=
EXTT8=
EXTT9=
PLAYORDER=
